<mxfile host="app.diagrams.net" modified="2022-04-08T17:02:19.570Z" agent="5.0 (Macintosh)" etag="KNMYoxu00w5NCnNXwZH4" version="17.4.0" type="github">
  <diagram id="FRSoBtHujyncFjuJLg8h" name="Page-1">
    <mxGraphModel dx="1426" dy="820" grid="1" gridSize="10" guides="1" tooltips="1" connect="1" arrows="1" fold="1" page="1" pageScale="1" pageWidth="850" pageHeight="1100" math="0" shadow="0">
      <root>
        <mxCell id="0" />
        <mxCell id="1" parent="0" />
        <mxCell id="N7xInEoGNkmSRCjMhbKC-1" value="Region" style="points=[[0,0],[0.25,0],[0.5,0],[0.75,0],[1,0],[1,0.25],[1,0.5],[1,0.75],[1,1],[0.75,1],[0.5,1],[0.25,1],[0,1],[0,0.75],[0,0.5],[0,0.25]];outlineConnect=0;gradientColor=none;html=1;whiteSpace=wrap;fontSize=12;fontStyle=0;container=1;pointerEvents=0;collapsible=0;recursiveResize=0;shape=mxgraph.aws4.group;grIcon=mxgraph.aws4.group_region;strokeColor=#147EBA;fillColor=none;verticalAlign=top;align=left;spacingLeft=30;fontColor=#147EBA;dashed=1;shadow=0;" vertex="1" parent="1">
          <mxGeometry x="60" y="110" width="728" height="620" as="geometry" />
        </mxCell>
        <mxCell id="N7xInEoGNkmSRCjMhbKC-2" value="VPC" style="points=[[0,0],[0.25,0],[0.5,0],[0.75,0],[1,0],[1,0.25],[1,0.5],[1,0.75],[1,1],[0.75,1],[0.5,1],[0.25,1],[0,1],[0,0.75],[0,0.5],[0,0.25]];outlineConnect=0;gradientColor=none;html=1;whiteSpace=wrap;fontSize=12;fontStyle=0;container=1;pointerEvents=0;collapsible=0;recursiveResize=0;shape=mxgraph.aws4.group;grIcon=mxgraph.aws4.group_vpc;strokeColor=#248814;fillColor=none;verticalAlign=top;align=left;spacingLeft=30;fontColor=#AAB7B8;dashed=0;" vertex="1" parent="N7xInEoGNkmSRCjMhbKC-1">
          <mxGeometry x="30" y="90" width="650" height="510" as="geometry" />
        </mxCell>
        <mxCell id="N7xInEoGNkmSRCjMhbKC-34" value="Private subnet" style="points=[[0,0],[0.25,0],[0.5,0],[0.75,0],[1,0],[1,0.25],[1,0.5],[1,0.75],[1,1],[0.75,1],[0.5,1],[0.25,1],[0,1],[0,0.75],[0,0.5],[0,0.25]];outlineConnect=0;gradientColor=none;html=1;whiteSpace=wrap;fontSize=12;fontStyle=0;container=1;pointerEvents=0;collapsible=0;recursiveResize=0;shape=mxgraph.aws4.group;grIcon=mxgraph.aws4.group_security_group;grStroke=0;strokeColor=#147EBA;fillColor=#E6F2F8;verticalAlign=top;align=left;spacingLeft=30;fontColor=#147EBA;dashed=0;shadow=1;" vertex="1" parent="N7xInEoGNkmSRCjMhbKC-2">
          <mxGeometry x="410" y="297" width="140" height="90" as="geometry" />
        </mxCell>
        <mxCell id="N7xInEoGNkmSRCjMhbKC-13" value="Private subnet" style="points=[[0,0],[0.25,0],[0.5,0],[0.75,0],[1,0],[1,0.25],[1,0.5],[1,0.75],[1,1],[0.75,1],[0.5,1],[0.25,1],[0,1],[0,0.75],[0,0.5],[0,0.25]];outlineConnect=0;gradientColor=none;html=1;whiteSpace=wrap;fontSize=12;fontStyle=0;container=1;pointerEvents=0;collapsible=0;recursiveResize=0;shape=mxgraph.aws4.group;grIcon=mxgraph.aws4.group_security_group;grStroke=0;strokeColor=#147EBA;fillColor=#E6F2F8;verticalAlign=top;align=left;spacingLeft=30;fontColor=#147EBA;dashed=0;" vertex="1" parent="N7xInEoGNkmSRCjMhbKC-34">
          <mxGeometry x="15" y="-120" width="125" height="80" as="geometry" />
        </mxCell>
        <mxCell id="N7xInEoGNkmSRCjMhbKC-17" value="EC2" style="sketch=0;points=[[0,0,0],[0.25,0,0],[0.5,0,0],[0.75,0,0],[1,0,0],[0,1,0],[0.25,1,0],[0.5,1,0],[0.75,1,0],[1,1,0],[0,0.25,0],[0,0.5,0],[0,0.75,0],[1,0.25,0],[1,0.5,0],[1,0.75,0]];outlineConnect=0;fontColor=#232F3E;gradientColor=#F78E04;gradientDirection=north;fillColor=#D05C17;strokeColor=#ffffff;dashed=0;verticalLabelPosition=bottom;verticalAlign=top;align=center;html=1;fontSize=12;fontStyle=0;aspect=fixed;shape=mxgraph.aws4.resourceIcon;resIcon=mxgraph.aws4.ec2;" vertex="1" parent="N7xInEoGNkmSRCjMhbKC-13">
          <mxGeometry x="35" y="20" width="50" height="50" as="geometry" />
        </mxCell>
        <mxCell id="N7xInEoGNkmSRCjMhbKC-7" value="Availability Zone" style="fillColor=none;strokeColor=#147EBA;dashed=1;verticalAlign=top;fontStyle=0;fontColor=#147EBA;" vertex="1" parent="N7xInEoGNkmSRCjMhbKC-34">
          <mxGeometry x="-30" y="-267" width="220" height="370" as="geometry" />
        </mxCell>
        <mxCell id="N7xInEoGNkmSRCjMhbKC-10" value="Public subnet" style="points=[[0,0],[0.25,0],[0.5,0],[0.75,0],[1,0],[1,0.25],[1,0.5],[1,0.75],[1,1],[0.75,1],[0.5,1],[0.25,1],[0,1],[0,0.75],[0,0.5],[0,0.25]];outlineConnect=0;gradientColor=none;html=1;whiteSpace=wrap;fontSize=12;fontStyle=0;container=1;pointerEvents=0;collapsible=0;recursiveResize=0;shape=mxgraph.aws4.group;grIcon=mxgraph.aws4.group_security_group;grStroke=0;strokeColor=#248814;fillColor=#E9F3E6;verticalAlign=top;align=left;spacingLeft=30;fontColor=#248814;dashed=0;" vertex="1" parent="N7xInEoGNkmSRCjMhbKC-34">
          <mxGeometry x="20" y="-230" width="125" height="90" as="geometry" />
        </mxCell>
        <mxCell id="N7xInEoGNkmSRCjMhbKC-15" value="NAT Gateway" style="sketch=0;outlineConnect=0;fontColor=#232F3E;gradientColor=none;fillColor=#4D27AA;strokeColor=none;dashed=0;verticalLabelPosition=bottom;verticalAlign=top;align=center;html=1;fontSize=12;fontStyle=0;aspect=fixed;pointerEvents=1;shape=mxgraph.aws4.nat_gateway;" vertex="1" parent="N7xInEoGNkmSRCjMhbKC-10">
          <mxGeometry x="35" y="30" width="40" height="40" as="geometry" />
        </mxCell>
        <mxCell id="N7xInEoGNkmSRCjMhbKC-38" value="&lt;div&gt;Aurora Secondary&lt;/div&gt;&lt;div&gt;&lt;br&gt;&lt;/div&gt;" style="sketch=0;points=[[0,0,0],[0.25,0,0],[0.5,0,0],[0.75,0,0],[1,0,0],[0,1,0],[0.25,1,0],[0.5,1,0],[0.75,1,0],[1,1,0],[0,0.25,0],[0,0.5,0],[0,0.75,0],[1,0.25,0],[1,0.5,0],[1,0.75,0]];outlineConnect=0;fontColor=#232F3E;gradientColor=#4D72F3;gradientDirection=north;fillColor=#3334B9;strokeColor=#ffffff;dashed=0;verticalLabelPosition=bottom;verticalAlign=top;align=center;html=1;fontSize=12;fontStyle=0;aspect=fixed;shape=mxgraph.aws4.resourceIcon;resIcon=mxgraph.aws4.aurora;shadow=1;" vertex="1" parent="N7xInEoGNkmSRCjMhbKC-34">
          <mxGeometry x="40" y="20.75" width="60.25" height="60.25" as="geometry" />
        </mxCell>
        <mxCell id="N7xInEoGNkmSRCjMhbKC-67" value="" style="edgeStyle=orthogonalEdgeStyle;rounded=0;orthogonalLoop=1;jettySize=auto;html=1;" edge="1" parent="N7xInEoGNkmSRCjMhbKC-34" source="N7xInEoGNkmSRCjMhbKC-17" target="N7xInEoGNkmSRCjMhbKC-15">
          <mxGeometry relative="1" as="geometry" />
        </mxCell>
        <mxCell id="N7xInEoGNkmSRCjMhbKC-28" value="Private subnet" style="points=[[0,0],[0.25,0],[0.5,0],[0.75,0],[1,0],[1,0.25],[1,0.5],[1,0.75],[1,1],[0.75,1],[0.5,1],[0.25,1],[0,1],[0,0.75],[0,0.5],[0,0.25]];outlineConnect=0;gradientColor=none;html=1;whiteSpace=wrap;fontSize=12;fontStyle=0;container=1;pointerEvents=0;collapsible=0;recursiveResize=0;shape=mxgraph.aws4.group;grIcon=mxgraph.aws4.group_security_group;grStroke=0;strokeColor=#147EBA;fillColor=#E6F2F8;verticalAlign=top;align=left;spacingLeft=30;fontColor=#147EBA;dashed=0;shadow=1;" vertex="1" parent="N7xInEoGNkmSRCjMhbKC-2">
          <mxGeometry x="87.5" y="290" width="122.5" height="90" as="geometry" />
        </mxCell>
        <mxCell id="N7xInEoGNkmSRCjMhbKC-6" value="Availability Zone" style="fillColor=none;strokeColor=#147EBA;dashed=1;verticalAlign=top;fontStyle=0;fontColor=#147EBA;" vertex="1" parent="N7xInEoGNkmSRCjMhbKC-28">
          <mxGeometry x="-55" y="-259" width="220" height="360" as="geometry" />
        </mxCell>
        <mxCell id="N7xInEoGNkmSRCjMhbKC-8" value="Public subnet" style="points=[[0,0],[0.25,0],[0.5,0],[0.75,0],[1,0],[1,0.25],[1,0.5],[1,0.75],[1,1],[0.75,1],[0.5,1],[0.25,1],[0,1],[0,0.75],[0,0.5],[0,0.25]];outlineConnect=0;gradientColor=none;html=1;whiteSpace=wrap;fontSize=12;fontStyle=0;container=1;pointerEvents=0;collapsible=0;recursiveResize=0;shape=mxgraph.aws4.group;grIcon=mxgraph.aws4.group_security_group;grStroke=0;strokeColor=#248814;fillColor=#E9F3E6;verticalAlign=top;align=left;spacingLeft=30;fontColor=#248814;dashed=0;" vertex="1" parent="N7xInEoGNkmSRCjMhbKC-28">
          <mxGeometry x="2.5" y="-235" width="117.5" height="100" as="geometry" />
        </mxCell>
        <mxCell id="N7xInEoGNkmSRCjMhbKC-14" value="NAT Gateway" style="sketch=0;outlineConnect=0;fontColor=#232F3E;gradientColor=none;fillColor=#4D27AA;strokeColor=none;dashed=0;verticalLabelPosition=bottom;verticalAlign=top;align=center;html=1;fontSize=12;fontStyle=0;aspect=fixed;pointerEvents=1;shape=mxgraph.aws4.nat_gateway;" vertex="1" parent="N7xInEoGNkmSRCjMhbKC-8">
          <mxGeometry x="35" y="33" width="37" height="37" as="geometry" />
        </mxCell>
        <mxCell id="N7xInEoGNkmSRCjMhbKC-11" value="Private subnet" style="points=[[0,0],[0.25,0],[0.5,0],[0.75,0],[1,0],[1,0.25],[1,0.5],[1,0.75],[1,1],[0.75,1],[0.5,1],[0.25,1],[0,1],[0,0.75],[0,0.5],[0,0.25]];outlineConnect=0;gradientColor=none;html=1;whiteSpace=wrap;fontSize=12;fontStyle=0;container=1;pointerEvents=0;collapsible=0;recursiveResize=0;shape=mxgraph.aws4.group;grIcon=mxgraph.aws4.group_security_group;grStroke=0;strokeColor=#147EBA;fillColor=#E6F2F8;verticalAlign=top;align=left;spacingLeft=30;fontColor=#147EBA;dashed=0;" vertex="1" parent="N7xInEoGNkmSRCjMhbKC-28">
          <mxGeometry x="-5" y="-120" width="125" height="100" as="geometry" />
        </mxCell>
        <mxCell id="N7xInEoGNkmSRCjMhbKC-16" value="EC2 " style="sketch=0;points=[[0,0,0],[0.25,0,0],[0.5,0,0],[0.75,0,0],[1,0,0],[0,1,0],[0.25,1,0],[0.5,1,0],[0.75,1,0],[1,1,0],[0,0.25,0],[0,0.5,0],[0,0.75,0],[1,0.25,0],[1,0.5,0],[1,0.75,0]];outlineConnect=0;fontColor=#232F3E;gradientColor=#F78E04;gradientDirection=north;fillColor=#D05C17;strokeColor=#ffffff;dashed=0;verticalLabelPosition=bottom;verticalAlign=top;align=center;html=1;fontSize=12;fontStyle=0;aspect=fixed;shape=mxgraph.aws4.resourceIcon;resIcon=mxgraph.aws4.ec2;" vertex="1" parent="N7xInEoGNkmSRCjMhbKC-11">
          <mxGeometry x="34" y="23" width="57" height="57" as="geometry" />
        </mxCell>
        <mxCell id="N7xInEoGNkmSRCjMhbKC-37" value="&lt;div&gt;Aurora Primary&lt;/div&gt;&lt;div&gt;&lt;br&gt;&lt;/div&gt;" style="sketch=0;points=[[0,0,0],[0.25,0,0],[0.5,0,0],[0.75,0,0],[1,0,0],[0,1,0],[0.25,1,0],[0.5,1,0],[0.75,1,0],[1,1,0],[0,0.25,0],[0,0.5,0],[0,0.75,0],[1,0.25,0],[1,0.5,0],[1,0.75,0]];outlineConnect=0;fontColor=#232F3E;gradientColor=#4D72F3;gradientDirection=north;fillColor=#3334B9;strokeColor=#ffffff;dashed=0;verticalLabelPosition=bottom;verticalAlign=top;align=center;html=1;fontSize=12;fontStyle=0;aspect=fixed;shape=mxgraph.aws4.resourceIcon;resIcon=mxgraph.aws4.aurora;shadow=1;" vertex="1" parent="N7xInEoGNkmSRCjMhbKC-28">
          <mxGeometry x="40" y="17.75" width="60.25" height="60.25" as="geometry" />
        </mxCell>
        <mxCell id="N7xInEoGNkmSRCjMhbKC-62" style="edgeStyle=orthogonalEdgeStyle;rounded=0;orthogonalLoop=1;jettySize=auto;html=1;entryX=1;entryY=0.5;entryDx=0;entryDy=0;entryPerimeter=0;" edge="1" parent="N7xInEoGNkmSRCjMhbKC-2">
          <mxGeometry relative="1" as="geometry">
            <mxPoint x="293" y="170" as="sourcePoint" />
            <mxPoint x="173.5" y="227.5" as="targetPoint" />
            <Array as="points">
              <mxPoint x="240" y="170" />
              <mxPoint x="240" y="228" />
            </Array>
          </mxGeometry>
        </mxCell>
        <mxCell id="N7xInEoGNkmSRCjMhbKC-66" style="edgeStyle=orthogonalEdgeStyle;rounded=0;orthogonalLoop=1;jettySize=auto;html=1;entryX=0;entryY=0.75;entryDx=0;entryDy=0;entryPerimeter=0;" edge="1" parent="N7xInEoGNkmSRCjMhbKC-2" source="N7xInEoGNkmSRCjMhbKC-21" target="N7xInEoGNkmSRCjMhbKC-17">
          <mxGeometry relative="1" as="geometry" />
        </mxCell>
        <mxCell id="N7xInEoGNkmSRCjMhbKC-21" value="ELB" style="sketch=0;outlineConnect=0;fontColor=#232F3E;gradientColor=none;fillColor=#4D27AA;strokeColor=none;dashed=0;verticalLabelPosition=bottom;verticalAlign=top;align=center;html=1;fontSize=12;fontStyle=0;aspect=fixed;pointerEvents=1;shape=mxgraph.aws4.application_load_balancer;" vertex="1" parent="N7xInEoGNkmSRCjMhbKC-2">
          <mxGeometry x="293" y="147" width="34" height="34" as="geometry" />
        </mxCell>
        <mxCell id="N7xInEoGNkmSRCjMhbKC-61" style="edgeStyle=orthogonalEdgeStyle;rounded=0;orthogonalLoop=1;jettySize=auto;html=1;" edge="1" parent="N7xInEoGNkmSRCjMhbKC-1" source="N7xInEoGNkmSRCjMhbKC-5" target="N7xInEoGNkmSRCjMhbKC-21">
          <mxGeometry relative="1" as="geometry" />
        </mxCell>
        <mxCell id="N7xInEoGNkmSRCjMhbKC-5" value="&lt;div&gt;Internet Gateway&lt;/div&gt;&lt;div&gt;&lt;br&gt;&lt;/div&gt;" style="sketch=0;outlineConnect=0;fontColor=#232F3E;gradientColor=none;fillColor=#4D27AA;strokeColor=none;dashed=0;verticalLabelPosition=bottom;verticalAlign=top;align=center;html=1;fontSize=12;fontStyle=0;aspect=fixed;pointerEvents=1;shape=mxgraph.aws4.internet_gateway;" vertex="1" parent="N7xInEoGNkmSRCjMhbKC-1">
          <mxGeometry x="320" y="70" width="40" height="40" as="geometry" />
        </mxCell>
        <mxCell id="N7xInEoGNkmSRCjMhbKC-45" value="" style="edgeStyle=orthogonalEdgeStyle;rounded=0;orthogonalLoop=1;jettySize=auto;html=1;entryX=0.5;entryY=0;entryDx=0;entryDy=0;entryPerimeter=0;" edge="1" parent="N7xInEoGNkmSRCjMhbKC-1" source="N7xInEoGNkmSRCjMhbKC-26" target="N7xInEoGNkmSRCjMhbKC-40">
          <mxGeometry relative="1" as="geometry">
            <mxPoint x="181" y="-48" as="targetPoint" />
          </mxGeometry>
        </mxCell>
        <mxCell id="N7xInEoGNkmSRCjMhbKC-26" value="&lt;div&gt;User&lt;/div&gt;&lt;div&gt;&lt;br&gt;&lt;/div&gt;" style="html=1;verticalLabelPosition=bottom;align=center;labelBackgroundColor=#ffffff;verticalAlign=top;strokeWidth=2;strokeColor=#0080F0;shadow=0;dashed=0;shape=mxgraph.ios7.icons.user;" vertex="1" parent="N7xInEoGNkmSRCjMhbKC-1">
          <mxGeometry x="71" y="-64" width="30" height="28" as="geometry" />
        </mxCell>
        <mxCell id="N7xInEoGNkmSRCjMhbKC-48" value="" style="edgeStyle=orthogonalEdgeStyle;rounded=0;orthogonalLoop=1;jettySize=auto;html=1;" edge="1" parent="N7xInEoGNkmSRCjMhbKC-1" source="N7xInEoGNkmSRCjMhbKC-40" target="N7xInEoGNkmSRCjMhbKC-42">
          <mxGeometry relative="1" as="geometry" />
        </mxCell>
        <mxCell id="N7xInEoGNkmSRCjMhbKC-40" value="&lt;div&gt;Route 53&lt;/div&gt;&lt;div&gt;&lt;br&gt;&lt;/div&gt;" style="sketch=0;points=[[0,0,0],[0.25,0,0],[0.5,0,0],[0.75,0,0],[1,0,0],[0,1,0],[0.25,1,0],[0.5,1,0],[0.75,1,0],[1,1,0],[0,0.25,0],[0,0.5,0],[0,0.75,0],[1,0.25,0],[1,0.5,0],[1,0.75,0]];outlineConnect=0;fontColor=#232F3E;gradientColor=#945DF2;gradientDirection=north;fillColor=#5A30B5;strokeColor=#ffffff;dashed=0;verticalLabelPosition=bottom;verticalAlign=top;align=center;html=1;fontSize=12;fontStyle=0;aspect=fixed;shape=mxgraph.aws4.resourceIcon;resIcon=mxgraph.aws4.route_53;shadow=1;" vertex="1" parent="N7xInEoGNkmSRCjMhbKC-1">
          <mxGeometry x="300" width="40" height="40" as="geometry" />
        </mxCell>
        <mxCell id="N7xInEoGNkmSRCjMhbKC-42" value="&lt;div&gt;WAF&lt;/div&gt;&lt;div&gt;&lt;br&gt;&lt;/div&gt;" style="sketch=0;points=[[0,0,0],[0.25,0,0],[0.5,0,0],[0.75,0,0],[1,0,0],[0,1,0],[0.25,1,0],[0.5,1,0],[0.75,1,0],[1,1,0],[0,0.25,0],[0,0.5,0],[0,0.75,0],[1,0.25,0],[1,0.5,0],[1,0.75,0]];outlineConnect=0;fontColor=#232F3E;gradientColor=#F54749;gradientDirection=north;fillColor=#C7131F;strokeColor=#ffffff;dashed=0;verticalLabelPosition=bottom;verticalAlign=top;align=center;html=1;fontSize=12;fontStyle=0;aspect=fixed;shape=mxgraph.aws4.resourceIcon;resIcon=mxgraph.aws4.waf;shadow=1;" vertex="1" parent="N7xInEoGNkmSRCjMhbKC-1">
          <mxGeometry x="420" width="40" height="40" as="geometry" />
        </mxCell>
        <mxCell id="N7xInEoGNkmSRCjMhbKC-54" value="&lt;div&gt;S3&lt;/div&gt;&lt;div&gt;&lt;br&gt;&lt;/div&gt;" style="sketch=0;points=[[0,0,0],[0.25,0,0],[0.5,0,0],[0.75,0,0],[1,0,0],[0,1,0],[0.25,1,0],[0.5,1,0],[0.75,1,0],[1,1,0],[0,0.25,0],[0,0.5,0],[0,0.75,0],[1,0.25,0],[1,0.5,0],[1,0.75,0]];outlineConnect=0;fontColor=#232F3E;gradientColor=#60A337;gradientDirection=north;fillColor=#277116;strokeColor=#ffffff;dashed=0;verticalLabelPosition=bottom;verticalAlign=top;align=center;html=1;fontSize=12;fontStyle=0;aspect=fixed;shape=mxgraph.aws4.resourceIcon;resIcon=mxgraph.aws4.s3;shadow=0;" vertex="1" parent="N7xInEoGNkmSRCjMhbKC-1">
          <mxGeometry x="670" y="-2" width="45" height="45" as="geometry" />
        </mxCell>
        <mxCell id="N7xInEoGNkmSRCjMhbKC-23" value="" style="points=[[0,0],[0.25,0],[0.5,0],[0.75,0],[1,0],[1,0.25],[1,0.5],[1,0.75],[1,1],[0.75,1],[0.5,1],[0.25,1],[0,1],[0,0.75],[0,0.5],[0,0.25]];outlineConnect=0;gradientColor=none;html=1;whiteSpace=wrap;fontSize=12;fontStyle=0;container=1;pointerEvents=0;collapsible=0;recursiveResize=0;shape=mxgraph.aws4.groupCenter;grIcon=mxgraph.aws4.group_auto_scaling_group;grStroke=1;strokeColor=#D86613;fillColor=none;verticalAlign=top;align=center;fontColor=#D86613;dashed=1;spacingTop=25;" vertex="1" parent="1">
          <mxGeometry x="140" y="410" width="520" height="49" as="geometry" />
        </mxCell>
        <mxCell id="N7xInEoGNkmSRCjMhbKC-41" value="&lt;div&gt;Cognito&lt;/div&gt;&lt;div&gt;&lt;br&gt;&lt;/div&gt;" style="sketch=0;points=[[0,0,0],[0.25,0,0],[0.5,0,0],[0.75,0,0],[1,0,0],[0,1,0],[0.25,1,0],[0.5,1,0],[0.75,1,0],[1,1,0],[0,0.25,0],[0,0.5,0],[0,0.75,0],[1,0.25,0],[1,0.5,0],[1,0.75,0]];outlineConnect=0;fontColor=#232F3E;gradientColor=#F54749;gradientDirection=north;fillColor=#C7131F;strokeColor=#ffffff;dashed=0;verticalLabelPosition=bottom;verticalAlign=top;align=center;html=1;fontSize=12;fontStyle=0;aspect=fixed;shape=mxgraph.aws4.resourceIcon;resIcon=mxgraph.aws4.cognito;shadow=1;" vertex="1" parent="1">
          <mxGeometry x="207" y="110" width="40" height="40" as="geometry" />
        </mxCell>
        <mxCell id="N7xInEoGNkmSRCjMhbKC-55" style="edgeStyle=orthogonalEdgeStyle;rounded=0;orthogonalLoop=1;jettySize=auto;html=1;entryX=0;entryY=0.5;entryDx=0;entryDy=0;entryPerimeter=0;" edge="1" parent="1" source="N7xInEoGNkmSRCjMhbKC-43" target="N7xInEoGNkmSRCjMhbKC-54">
          <mxGeometry relative="1" as="geometry" />
        </mxCell>
        <mxCell id="N7xInEoGNkmSRCjMhbKC-43" value="&lt;div&gt;CloudFront&lt;/div&gt;&lt;div&gt;&lt;br&gt;&lt;/div&gt;" style="sketch=0;points=[[0,0,0],[0.25,0,0],[0.5,0,0],[0.75,0,0],[1,0,0],[0,1,0],[0.25,1,0],[0.5,1,0],[0.75,1,0],[1,1,0],[0,0.25,0],[0,0.5,0],[0,0.75,0],[1,0.25,0],[1,0.5,0],[1,0.75,0]];outlineConnect=0;fontColor=#232F3E;gradientColor=#945DF2;gradientDirection=north;fillColor=#5A30B5;strokeColor=#ffffff;dashed=0;verticalLabelPosition=bottom;verticalAlign=top;align=center;html=1;fontSize=12;fontStyle=0;aspect=fixed;shape=mxgraph.aws4.resourceIcon;resIcon=mxgraph.aws4.cloudfront;shadow=1;" vertex="1" parent="1">
          <mxGeometry x="630" y="110" width="40" height="40" as="geometry" />
        </mxCell>
        <mxCell id="N7xInEoGNkmSRCjMhbKC-53" style="edgeStyle=orthogonalEdgeStyle;rounded=0;orthogonalLoop=1;jettySize=auto;html=1;entryX=0;entryY=0.5;entryDx=0;entryDy=0;entryPerimeter=0;" edge="1" parent="1" source="N7xInEoGNkmSRCjMhbKC-42" target="N7xInEoGNkmSRCjMhbKC-43">
          <mxGeometry relative="1" as="geometry" />
        </mxCell>
        <mxCell id="N7xInEoGNkmSRCjMhbKC-68" value="&lt;div&gt;Auto Scaling Group&lt;/div&gt;&lt;div&gt;&lt;br&gt;&lt;/div&gt;" style="text;html=1;align=center;verticalAlign=middle;resizable=0;points=[];autosize=1;strokeColor=none;fillColor=none;" vertex="1" parent="1">
          <mxGeometry x="340" y="405" width="120" height="30" as="geometry" />
        </mxCell>
      </root>
    </mxGraphModel>
  </diagram>
</mxfile>
